<svg class="mainlogo" width="704" height="704" viewBox="0 0 704 704" fill="none" xmlns="http://www.w3.org/2000/svg">
<rect x="429" y="234" width="100" height="100" rx="16" fill="url(#paint0_radial_2_185)"/>
<circle cx="545" cy="115.5" r="92" fill="#8BBAE9"/>
<circle cx="405" cy="74.5" r="55.5" fill="url(#paint1_radial_2_185)"/>
<circle cx="201.5" cy="203.5" r="192.5" fill="#DD8788"/>
<path d="M415.107 585.277C498.343 585.277 565.819 517.801 565.819 434.565C565.819 351.329 498.343 283.853 415.107 283.853C331.87 283.853 264.394 351.329 264.394 434.565C264.394 517.801 331.87 585.277 415.107 585.277Z" fill="#B3DBC9"/>
<path fill-rule="evenodd" clip-rule="evenodd" d="M443.407 318.687C482.522 318.687 518.172 333.612 544.98 358.054C558.244 380.47 565.819 406.63 565.819 434.565C565.819 517.806 498.348 585.277 415.107 585.277C375.992 585.277 340.342 570.353 313.533 545.91C300.27 523.494 292.695 497.334 292.695 469.399C292.695 386.158 360.166 318.687 443.407 318.687Z" fill="#BCE6D3"/>
<path d="M398.239 436.198H138.181V636.416H398.239V436.198Z" fill="#FF77A5"/>
<path d="M286.394 432.976L316.976 399.01L288.681 373.534L258.099 407.501L286.394 432.976Z" fill="#FEA7A8"/>
<path d="M259.576 435.816C246.195 424.032 237.479 420.391 233.348 424.887C229.217 429.383 239.693 434.377 264.677 439.881C239.371 428.472 227.361 427.521 228.684 437.071C229.323 441.645 240.94 445.719 262.685 441.625" stroke="#09072B" stroke-width="0.5632"/>
<path fill-rule="evenodd" clip-rule="evenodd" d="M313.529 398.522L260.217 417.523C261.075 425.993 259.415 434.003 255.221 441.492C248.921 452.734 236.744 467.179 243.486 491.555L303.862 450.525L307.489 437.85L312.232 443.501L337.295 426.845L313.529 398.522Z" fill="#261A5E"/>
<path d="M274.968 429.983L255.682 433.152" stroke="white" stroke-width="0.5632"/>
<path d="M271.13 436.843L251.862 440.034" stroke="white" stroke-width="0.5632"/>
<path d="M267.292 443.703L248.024 446.894" stroke="white" stroke-width="0.5632"/>
<path d="M395.162 598.344H355.991V636.416H395.162V598.344Z" fill="#FEA7A8"/>
<path fill-rule="evenodd" clip-rule="evenodd" d="M356.414 621.435L355.287 624.617C351.148 636.303 349.036 648.581 349.036 660.971V672.573H403.441L402.061 652.918C401.554 645.85 400.372 638.838 398.513 631.967L395.641 621.435H356.414Z" fill="#261A5E"/>
<path d="M359.371 646.751H390.29" stroke="white" stroke-width="0.5632"/>
<path d="M359.371 639.147H390.29" stroke="white" stroke-width="0.5632"/>
<path d="M359.371 630.446H390.29" stroke="white" stroke-width="0.5632"/>
<path fill-rule="evenodd" clip-rule="evenodd" d="M448.195 241.591L463.148 283.943C467.766 297.066 468.836 311.174 466.245 324.832C463.626 338.574 458.135 351.612 450.109 363.073L405.335 427.053L419.415 603.954C396.408 610.543 378.583 613.838 365.939 613.838C353.295 613.838 341.046 610.543 329.19 603.954L317.701 445.357C317.11 437.021 317.448 428.658 318.771 420.407L320.292 410.776C322.263 398.358 326.374 386.361 332.457 375.351L359.012 327.169L301.256 330.802L323.277 376.505C304.212 391.233 289.372 400.976 278.7 405.792C268.027 410.579 251.384 414.972 228.8 418.971L187.348 247.927C184.42 235.846 186.391 223.118 192.783 212.502C199.119 201.998 209.792 194.845 221.929 193.043L222.464 192.959C235.277 191.044 248.371 193.184 259.917 199.069L351.437 245.843L365.911 226.384C387.82 216.979 403.533 213.149 413.051 214.895C422.569 216.669 434.284 225.54 448.195 241.591Z" fill="#3F38A2"/>
<path fill-rule="evenodd" clip-rule="evenodd" d="M263.662 241.535L301.256 330.802L359.012 327.113L263.662 241.535Z" fill="#261A5E"/>
<path d="M376.668 293.518L357.013 330.802" stroke="white" stroke-width="0.5632"/>
<path d="M348.79 244.576L362.926 251.081" stroke="white" stroke-width="0.5632"/>
<path d="M435.832 274.116L459.628 285.887" stroke="white" stroke-width="0.5632"/>
<path opacity="0.3" d="M408.376 606.77L390.776 429.559C390.298 424.8 390.776 419.984 392.184 415.423L394.325 408.495C436.508 356.174 455.967 314.553 452.672 283.662" stroke="white" stroke-width="0.5632"/>
<path opacity="0.3" d="M303.058 390.811L263.662 241.535" stroke="white" stroke-width="0.5632"/>
<path fill-rule="evenodd" clip-rule="evenodd" d="M474.44 267.182L457.262 283.656L435.832 273.039L429.975 273.969C427.948 274.278 425.892 273.687 424.371 272.335C423.526 271.603 423.442 270.308 424.202 269.463C424.399 269.238 424.653 269.041 424.934 268.928L425.498 268.675C427.863 267.689 430.313 266.957 432.847 266.534L434.452 266.253C437.972 265.661 441.183 263.944 443.633 261.381L453.432 251.046L474.44 267.182Z" fill="#FEA7A8"/>
<path fill-rule="evenodd" clip-rule="evenodd" d="M355.041 127.452C349.522 132.324 345.213 138.435 342.454 145.249L327.613 181.688L322.404 130.803L295.229 133.366L293.878 212.157C293.737 220.211 296.3 228.096 301.171 234.545C305.846 240.74 313.336 244.091 321.08 243.443L322.038 243.359C330.458 242.655 338.033 238.036 342.51 230.884L360.166 202.724L363.433 228.913C400.717 227.533 428.905 232.32 447.969 243.302L464.443 195.515L476.58 221.225L440.704 261.071L464.415 280.783L504.261 244.288C509.949 239.078 513.864 232.179 515.384 224.604C516.905 217.029 515.976 209.172 512.737 202.161L474.299 119.032C471.201 112.302 465.766 106.924 459.008 103.882C452.221 100.813 444.618 100.109 437.381 101.883L374.246 117.343C367.15 119.117 360.532 122.58 355.041 127.452Z" fill="#FFC84B"/>
<path fill-rule="evenodd" clip-rule="evenodd" d="M450.222 161.807L467.231 201.513L464.415 195.543L447.941 243.331C429.074 232.461 401.252 227.645 364.531 228.884L363.405 228.913L361.603 214.438L361.715 214.1L419.697 215.086C425.807 215.199 431.862 214.044 437.522 211.763C442.788 209.623 446.421 204.695 446.927 199.035L450.222 161.807Z" fill="#ECB947"/>
<path fill-rule="evenodd" clip-rule="evenodd" d="M310.935 71.6954H344.671V76.1447L340.475 125.199C340.391 126.326 339.433 127.199 338.307 127.199H317.3C316.173 127.199 315.216 126.326 315.131 125.199L310.935 76.1447V71.6954Z" fill="#0E8B80"/>
<path fill-rule="evenodd" clip-rule="evenodd" d="M344.671 72.2305V76.1447L340.475 125.199C340.391 126.326 339.433 127.199 338.307 127.199H317.3C316.173 127.199 315.216 126.326 315.131 125.199L313.442 105.403C315.272 103.15 317.469 101.235 320.059 99.7428L320.594 99.433C331.802 93.2097 337.237 84.3111 336.927 72.7373L336.899 72.2305H344.671Z" fill="#0C8076"/>
<path fill-rule="evenodd" clip-rule="evenodd" d="M320.735 64.064H334.871C337.885 64.064 340.306 66.514 340.306 69.4989H315.272C315.3 66.514 317.75 64.064 320.735 64.064Z" fill="#0E8B80"/>
<path fill-rule="evenodd" clip-rule="evenodd" d="M310.935 68.4288H344.671C345.262 68.4288 345.769 68.9076 345.769 69.5271V72.7936C345.769 73.385 345.291 73.8919 344.671 73.8919H310.935C310.344 73.8919 309.837 73.4132 309.837 72.7936V69.5271C309.865 68.9076 310.344 68.4288 310.935 68.4288Z" fill="#0C8076"/>
<path fill-rule="evenodd" clip-rule="evenodd" d="M310.935 85.9162H344.671L343.01 105.628H312.625L310.935 85.9162Z" fill="#BF4A24"/>
<path d="M334.21 89.8326L316.91 95.4633" stroke="#0F0B47" stroke-width="0.5632"/>
<path d="M333.525 97.7714L318.589 103.046" stroke="#0F0B47" stroke-width="0.5632"/>
<path d="M330.367 106.944L319.806 109.659" stroke="#0F0B47" stroke-width="0.5632"/>
<path d="M326.849 113.917L319.554 115.137" stroke="#0F0B47" stroke-width="0.5632"/>
<path fill-rule="evenodd" clip-rule="evenodd" d="M300.92 107.361L302.664 101.314C303.648 97.9499 305.381 94.8684 307.762 92.2906C310.109 89.7653 313.21 88.04 316.612 87.3437L337.655 83.1285C338.615 82.9321 339.536 83.5707 339.719 84.5059C339.786 84.7921 339.767 85.096 339.67 85.3794C339.109 87.1667 337.718 88.5875 335.936 89.1613L320.105 94.4641L337.058 91.0494C338.105 90.8352 339.118 91.5188 339.318 92.5413C339.367 92.7402 339.354 92.9428 339.341 93.1454C339.135 94.7601 338.055 96.0991 336.524 96.6578L320.563 102.297L335.673 100.759C336.776 100.642 337.758 101.441 337.874 102.544C337.878 102.607 337.882 102.67 337.9 102.757C337.902 104.057 337.013 105.22 335.733 105.537L320.874 109.368L330.18 109.718C331.116 109.763 331.843 110.514 331.861 111.446C331.893 112.403 331.198 113.227 330.273 113.371L320.689 114.905C321.816 116.238 321.348 118.751 319.315 122.494L319.318 131.792L297.696 133.935L297.693 130.1C297.711 122.416 298.791 114.769 300.92 107.361Z" fill="#FEA7A8"/>
<path fill-rule="evenodd" clip-rule="evenodd" d="M380.998 65.8944C377.196 64.4864 374.943 61.4451 374.211 56.8269C373.141 49.8714 377.618 44.0986 390.6 42.6061C403.582 41.1136 409.298 38.1005 420.534 32.4403C431.77 26.7802 448.582 46.2106 423.688 62.7405C407.102 73.7792 395.303 79.2704 388.319 79.2422L380.998 65.8944Z" fill="#0F0B47"/>
<path fill-rule="evenodd" clip-rule="evenodd" d="M424.308 56.5171C413.438 57.6435 404.905 57.3056 398.738 55.5315C389.474 52.8845 394.514 64.4864 388.404 71.8643C387.474 66.6266 385.334 64.1485 381.983 64.4583C376.971 64.937 376.548 74.0608 386.123 77.1021L385.278 114.386C385.081 123.228 392.093 130.578 400.935 130.775C401.047 130.775 401.188 130.775 401.301 130.775C408.96 130.775 415.184 124.552 415.184 116.892C415.184 116.132 415.127 115.343 414.987 114.583L412.762 101.32L415.55 101.01C418.056 100.728 420.421 99.7427 422.393 98.1658C424.308 96.6733 425.378 94.336 425.321 91.9143L424.308 56.5171Z" fill="#FEA7A8"/>
<path d="M405.159 70.4C405.765 70.4 406.257 69.9083 406.257 69.3018C406.257 68.6952 405.765 68.2035 405.159 68.2035C404.552 68.2035 404.061 68.6952 404.061 69.3018C404.061 69.9083 404.552 70.4 405.159 70.4Z" fill="#0F0B47"/>
<path fill-rule="evenodd" clip-rule="evenodd" d="M406.341 60.9383L399.808 62.2336C399.273 62.3463 398.907 62.8531 399.02 63.4163C399.02 63.4163 399.02 63.4163 399.02 63.4445C399.133 64.0077 399.668 64.3456 400.231 64.233L406.792 62.9658C407.327 62.8531 407.693 62.3463 407.581 61.7831C407.581 61.7831 407.581 61.7831 407.581 61.7549C407.44 61.1917 406.905 60.8256 406.341 60.9383Z" fill="#0F0B47"/>
<path d="M418.225 70.4C418.832 70.4 419.323 69.9083 419.323 69.3018C419.323 68.6952 418.832 68.2035 418.225 68.2035C417.618 68.2035 417.127 68.6952 417.127 69.3018C417.127 69.9083 417.618 70.4 418.225 70.4Z" fill="#0F0B47"/>
<path fill-rule="evenodd" clip-rule="evenodd" d="M415.465 60.9383L422.027 62.2055C422.562 62.3181 422.928 62.825 422.815 63.3882C422.815 63.3882 422.815 63.3882 422.815 63.4164C422.702 63.9796 422.167 64.3175 421.604 64.2048L415.043 62.9376C414.508 62.825 414.142 62.3181 414.254 61.7549C414.254 61.7549 414.254 61.7549 414.254 61.7268C414.367 61.1917 414.902 60.8256 415.465 60.9383Z" fill="#0F0B47"/>
<path fill-rule="evenodd" clip-rule="evenodd" d="M390.6 86.7328L419.52 92.9562C420.928 94.5332 422.167 96.0256 423.209 97.4055C422.956 97.6871 422.674 97.9405 422.365 98.194C420.506 99.6583 418.281 100.616 415.944 100.982L415.493 101.038L412.706 101.348L414.283 110.781C402.455 108.303 394.599 100.447 390.713 87.2679L390.6 86.7328Z" fill="#E19394"/>
<path fill-rule="evenodd" clip-rule="evenodd" d="M389.924 69.5271L395.641 83.776C396.232 85.2685 397.668 86.2541 399.273 86.2541C400.963 86.2541 402.54 85.4938 403.582 84.1703L404.117 83.4944C405.497 81.7485 407.609 80.7347 409.833 80.7347H416.451C417.887 80.7347 419.239 81.4387 420.055 82.6215L420.731 83.5789C421.069 84.0858 421.773 84.2266 422.28 83.8605C422.9 83.4381 423.406 82.9031 423.829 82.2835L424.955 80.5376L425.265 91.9424C425.321 94.2797 424.336 96.4762 422.59 97.9968L422.365 98.1939C420.506 99.6583 418.281 100.616 415.944 100.982L415.493 101.038L412.762 101.348L405.328 100.813C401.385 100.531 397.64 98.9543 394.683 96.3635C391.755 93.801 389.924 90.1683 389.614 86.2823L388.404 71.8362C389.023 71.104 389.502 70.3155 389.924 69.5271Z" fill="#0F0B47"/>
<path d="M384.799 67.5277C382.715 66.3731 381.307 66.6266 380.631 68.3443C379.927 70.0339 381.561 72.0051 385.503 74.2016" stroke="#0F0B47" stroke-width="0.5632" stroke-linecap="round"/>
<path d="M411.664 69.3018L412.677 72.512C413.072 73.8074 414.001 74.8493 415.212 75.4407C416.31 75.9757 416.902 77.2147 416.592 78.3975L416.564 78.4819C416.254 79.6928 415.071 80.5095 413.832 80.3405L412.142 80.1152" stroke="#0F0B47" stroke-width="0.5632" stroke-linecap="round"/>
<path fill-rule="evenodd" clip-rule="evenodd" d="M407.496 85.6346H417.859C417.127 88.7603 415.522 90.3091 413.072 90.3091C410.622 90.3091 408.735 88.7603 407.496 85.6346Z" fill="#F9F9F9"/>
<path d="M405.334 74.2074C408.04 74.2074 410.234 72.0137 410.234 69.3076C410.234 66.6015 408.04 64.4077 405.334 64.4077C402.628 64.4077 400.434 66.6015 400.434 69.3076C400.434 72.0137 402.628 74.2074 405.334 74.2074Z" stroke="#F9F9F9" stroke-width="0.5632"/>
<path d="M418.372 74.2074C421.078 74.2074 423.272 72.0137 423.272 69.3076C423.272 66.6015 421.078 64.4077 418.372 64.4077C415.666 64.4077 413.472 66.6015 413.472 69.3076C413.472 72.0137 415.666 74.2074 418.372 74.2074Z" stroke="#F9F9F9" stroke-width="0.5632"/>
<path d="M400.462 68.857L387.255 66.8295" stroke="#F9F9F9" stroke-width="0.5632"/>
<path d="M410.459 69.3076H413.669" stroke="#F9F9F9" stroke-width="0.5632"/>
<path d="M423.215 69.3076L424.68 68.2375" stroke="#F9F9F9" stroke-width="0.5632"/>
<path d="M385.482 114.527C386.299 125.368 391.79 130.803 401.928 130.803C417.134 130.803 415.867 110.979 414.403 108.303" stroke="white" stroke-width="0.5632"/>
<path fill-rule="evenodd" clip-rule="evenodd" d="M360.476 202.555L352.957 159.78L341.609 232.067L360.476 202.555Z" fill="#ECB947"/>
<path d="M450.222 161.807L464.471 195.909" stroke="#0F0B47" stroke-width="0.5632"/>
<path d="M476.552 221.225H488.886" stroke="#0F0B47" stroke-width="0.5632"/>
<path d="M326.065 171.635L329.05 191.657" stroke="#0F0B47" stroke-width="0.5632"/>
<path d="M352.957 159.78L360.476 202.555" stroke="#0F0B47" stroke-width="0.5632"/>
<defs>
<radialGradient id="paint0_radial_2_185" cx="0" cy="0" r="1" gradientUnits="userSpaceOnUse" gradientTransform="translate(431.072 238.592) rotate(43.9641) scale(142.726 140.278)">
<stop offset="0.00508405" stop-color="#FF83CD"/>
<stop offset="0.25771" stop-color="#B5548E"/>
<stop offset="0.416311" stop-color="#A5467F"/>
<stop offset="0.684407" stop-color="#5D4B8B"/>
<stop offset="0.814648" stop-color="#4F3E7E" stop-opacity="0.991933"/>
<stop offset="1" stop-color="#625896" stop-opacity="0.81"/>
</radialGradient>
<radialGradient id="paint1_radial_2_185" cx="0" cy="0" r="1" gradientUnits="userSpaceOnUse" gradientTransform="translate(349.5 27.88) rotate(37.6304) scale(167.255)">
<stop stop-color="#FF83CD"/>
<stop offset="0.416311" stop-color="#FF83CD" stop-opacity="0.489983"/>
<stop offset="0.675334" stop-color="#B6A6DF" stop-opacity="0.622549"/>
<stop offset="1" stop-color="#8BBAE9" stop-opacity="0.7"/>
</radialGradient>
</defs>
</svg>
